<?xml version="1.0" encoding="utf-8"?>
<!-- Generator: Adobe Illustrator 18.0.0, SVG Export Plug-In . SVG Version: 6.00 Build 0)  -->
<!DOCTYPE svg PUBLIC "-//W3C//DTD SVG 1.1//EN" "http://www.w3.org/Graphics/SVG/1.1/DTD/svg11.dtd">
<svg version="1.1" xmlns="http://www.w3.org/2000/svg" xmlns:xlink="http://www.w3.org/1999/xlink" x="0px" y="0px"
	 viewBox="0 0 200 200" enable-background="new 0 0 200 200" xml:space="preserve">
<g id="Layer_1" display="none" opacity="0.43">
	
		
</g>
<g id="Layer_2">
	<path id="gear_x5F_ring" display="none" fill="none" stroke="#000000" stroke-width="2" stroke-miterlimit="10" d="M179.3,106.4
		l13.6-1.6l-3-24.7l-13.5,1.6c-1.2-4.3-2.8-8.5-4.7-12.5l11.2-7.7L168.6,41l-11.2,7.7c-3.1-3.2-6.4-6.2-10-8.9l6.3-12l-22.1-11.6
		l-6.3,12c-4.2-1.4-8.5-2.5-13-3.2V11.4H87.5v13.6c-4.4,0.7-8.8,1.8-12.9,3.2l-6.3-12.1L46.2,27.7l6.4,12.1c-3.6,2.7-6.9,5.6-10,8.8
		L31.4,41L17.2,61.5l11.2,7.7c-1.9,4-3.5,8.2-4.7,12.5L10.2,80l-3,24.7l13.6,1.6c0.2,4.5,0.7,8.9,1.6,13.2l-12.8,4.8l8.8,23.3
		l12.8-4.9c2.2,3.9,4.7,7.5,7.5,10.9l-9.1,10.3l18.6,16.5l9.1-10.3c3.7,2.4,7.6,4.5,11.7,6.2l-3.3,13.3l24.2,6l3.3-13.3
		c2.2,0.2,4.4,0.3,6.6,0.3s4.4-0.1,6.6-0.3l3.3,13.3l24.2-6l-3.3-13.3c4.1-1.7,8-3.8,11.8-6.2l9.1,10.3l18.6-16.5l-9.1-10.3
		c2.8-3.4,5.4-7.1,7.6-10.9l12.8,4.9l8.8-23.3l-12.8-4.9C178.5,115.3,179.1,110.9,179.3,106.4z"/>
	<path display="none" fill="none" stroke="#000000" stroke-width="1.1818" stroke-miterlimit="10" d="M155.2,71.7
		c5.4,9.4,8.5,20.3,8.5,31.9c0,35.2-28.5,63.7-63.7,63.7"/>
	<path id="SVGID_x5F_1_x5F_" fill="none" d="M44.8,71.7c11-19,31.6-31.9,55.2-31.9c23.6,0,44.2,12.8,55.2,31.9"/>
	<text>	<textPath  xlink:href="#SVGID_x5F_1_x5F_" startOffset="3.7355%">
<tspan  font-family="'DejaVuSansMono-Bold'" font-size="18">Hello World</tspan>	</textPath>
</text>
	<line display="none" fill="none" stroke="#000000" stroke-miterlimit="10" x1="100" y1="103.6" x2="100" y2="167.3"/>
	<line display="none" fill="none" stroke="#000000" stroke-miterlimit="10" x1="100" y1="103.6" x2="155.2" y2="71.7"/>
	<line display="none" fill="none" stroke="#000000" stroke-miterlimit="10" x1="100" y1="103.6" x2="44.8" y2="71.7"/>
	<path display="none" fill="none" stroke="#000000" stroke-width="1.1923" stroke-miterlimit="10" d="M41,7.2
		c-1.7,0-3.2,0.7-4.3,1.9h-15c-1.1-1.2-2.6-1.9-4.3-1.9c-3.2,0-5.9,2.6-5.9,5.9c0,3.2,2.6,5.9,5.9,5.9c1.7,0,3.2-0.7,4.3-1.9h15
		c1.1,1.2,2.6,1.9,4.3,1.9c3.2,0,5.9-2.6,5.9-5.9C46.9,9.9,44.3,7.2,41,7.2z"/>
	
		<line display="none" fill="none" stroke="#000000" stroke-width="1.1923" stroke-miterlimit="10" x1="11.5" y1="13.1" x2="-7" y2="13.1"/>
	
		<line display="none" fill="none" stroke="#000000" stroke-width="1.1923" stroke-miterlimit="10" x1="65.4" y1="13.1" x2="46.9" y2="13.1"/>
	<text transform="matrix(1 0 0 1 64.1421 115.8127)" font-family="'ChalkboardSE-Regular'" font-size="60">J.</text>
	<text transform="matrix(1 0 0 1 98.6594 132.6678)" font-family="'ChalkboardSE-Regular'" font-size="60">J</text>
	<g id="resistor">
		<g>
			<path fill="none" stroke="#000000" stroke-width="2" stroke-miterlimit="10" d="M39.8,136.9c1.8-4.1,5.3-6.6,8.6-7"/>
		</g>
		<g>
			<path fill="none" stroke="#000000" stroke-width="2" stroke-miterlimit="10" d="M38.1,132.8c1.9-4.2,5.5-6.6,8.9-6.9"/>
		</g>
		<g>
			<path fill="none" stroke="#000000" stroke-width="2" stroke-miterlimit="10" d="M36.7,128.6c1.9-3.8,5.2-5.9,8.3-6"/>
		</g>
		<g>
			<path fill="none" stroke="#000000" stroke-width="2" stroke-miterlimit="10" d="M41.8,140.3c1.8-3.8,5.1-6,8.2-6.2"/>
		</g>
		<g>
			<path fill="none" stroke="#000000" stroke-width="2" stroke-miterlimit="10" d="M31.3,117.9c0.5,2.8,2,4.7,3.8,5.6
				c2.1,7.7,5.2,14.7,9.1,20.9c-0.3,2.3,0.3,4.9,1.8,6.9c2.9,3.9,10.6,3.5,12.3-0.2c2-4,1-6.4-1.4-9.7c-1.2-1.8-3-2.9-4.9-3.3
				c-3.3-5.7-6-12.2-7.7-19.3c1-2.1,1.5-4.6,1.2-7.1c-0.6-4.7-3.7-6.2-8.1-6.6C33.5,104.6,30.2,112.5,31.3,117.9z"/>
		</g>
		<path fill="none" stroke="#000000" stroke-width="2" stroke-miterlimit="10" d="M100,167.3c-16.7,0-30.4-5.1-41.8-15.6"/>
		<path fill="none" stroke="#000000" stroke-width="2" stroke-miterlimit="10" d="M36.3,105.7c0-0.7,0-1.4,0-2.1
			c0-11.6,3.1-22.5,8.5-31.9"/>
	</g>
	<g id="wrench">
		<g>
			
				<ellipse transform="matrix(0.1167 -0.9932 0.9932 0.1167 -56.7508 263.4294)" fill="none" stroke="#000000" stroke-width="2" stroke-miterlimit="10" cx="119.7" cy="163.6" rx="4.5" ry="4.5"/>
			<g>
				<path fill="none" stroke="#000000" stroke-width="2" stroke-miterlimit="10" d="M156.7,96.7c0.6,3.3,0.9,6.6,0.9,10
					c0,22.6-13.7,42.1-33.2,50.5l0.9-0.4c-7.7-4.8-12.8,0.5-13.9,3.7c-1.6,4.5,0.7,9.4,5.3,11.1c4.5,1.7,9.9-0.8,11.6-5.3
					c1.2-3.2,1.7-2.6,1.7-2.6c21-10.4,35.4-32.1,35.4-57.1c0-3.8-0.3-7.6-1-11.2c3.4-2.1,4.1-6.2,3.3-10.3c-0.4-2.1-2.2-6.5-3.5-8
					c-0.3-0.4-1.2-0.6-2.1-0.6c-1.3-0.1-2.3,1-2.1,2.3l1.6,8.5l-6.6,1.4l-2.2-9c-0.3-1.1-1.5-1.6-2.4-1c-0.8,0.5-1.6,1.1-1.9,1.6
					c-1.1,1.9-1.2,6.2-0.7,8.5C148.7,92.9,152.8,95.9,156.7,96.7z"/>
			</g>
		</g>
	</g>
	<path fill="none" stroke="#000000" stroke-width="1.8567" stroke-miterlimit="10" d="M179.1,106.2l0,0.2l13.4-4.8l-2.2-17.9
		l-14.2-1.9l0,0.1c-1.2-4.4-2.8-8.6-4.8-12.6l9.6-10.5L170.8,44l-13.5,5l0.1,0.2c-3.1-3.3-6.5-6.4-10.2-9.1l0,0l3.6-13.8L135,17.9
		l-9.6,10.6l0.1,0c-4.2-1.4-8.6-2.5-13.2-3.3h0l-3.2-13.9h-18l-3.6,13.9h0c-4.5,0.7-8.9,1.8-13.1,3.3l0.1,0l-9.3-10.8l-15.9,8.4
		L52.7,40l0,0c-3.7,2.7-7.1,5.8-10.2,9.1l0.1-0.2l-13.2-5.3L19.2,58.5l9.4,10.8c-1.9,4-3.5,8.3-4.8,12.6l0-0.1L9.7,83.3l-2.2,17.9
		l13.4,5.2l0-0.2c0.2,4.6,0.7,9.1,1.6,13.5l-11.8,7.9l6.4,16.8l14.2-1.6l0-0.1c2.3,4,4.8,7.7,7.7,11.2l0,0L32,166.4l13.5,11.9
		l11.9-8l-0.1-0.1c3.8,2.4,7.8,4.6,12,6.3L69,190.8l17.5,4.3l6.8-12.6l-0.2,0c2.3,0.2,4.6,0.3,6.9,0.3c2.3,0,4.6-0.1,6.9-0.3l-0.2,0
		l6.4,12.7l17.5-4.3l0.1-14.3c4.2-1.8,8.2-3.9,12-6.3l-0.1,0.1l11.6,8.3l13.5-11.9l-6.5-12.8l0,0c2.9-3.5,5.4-7.2,7.7-11.2l0,0.1
		l14.1,2l6.4-16.8l-11.7-8.3C178.4,115.3,179,110.8,179.1,106.2z"/>
</g>
</svg>
