<?xml version="1.0" standalone="no"?>
<!DOCTYPE svg PUBLIC "-//W3C//DTD SVG 20010904//EN"
 "http://www.w3.org/TR/2001/REC-SVG-20010904/DTD/svg10.dtd">
<svg version="1.0" xmlns="http://www.w3.org/2000/svg"
 width="779.000000pt" height="779.000000pt" viewBox="0 0 779.000000 779.000000"
 preserveAspectRatio="xMidYMid meet">
<metadata>
Created by potrace 1.11, written by Peter Selinger 2001-2013
</metadata>
<g transform="translate(0.000000,779.000000) scale(0.100000,-0.100000)"
fill="#000000" stroke="none">
<path d="M3495 7758 c-4 -13 -64 -242 -115 -447 -16 -62 -31 -115 -34 -118 -5
-5 -100 -27 -169 -38 -18 -3 -50 -11 -72 -17 -22 -6 -45 -12 -50 -13 -6 -2
-54 -15 -108 -31 -96 -27 -97 -27 -115 -8 -9 10 -97 112 -195 226 l-178 207
-72 -38 c-83 -44 -250 -132 -387 -204 -52 -27 -132 -69 -176 -93 l-82 -44 20
-82 c71 -301 117 -502 115 -504 -132 -107 -220 -183 -288 -250 -47 -46 -90
-84 -96 -84 -6 0 -129 47 -273 105 -145 58 -269 105 -274 105 -6 -1 -35 -35
-64 -78 -30 -42 -132 -191 -229 -331 l-175 -253 25 -27 c32 -35 339 -391 355
-413 11 -14 7 -32 -29 -115 -23 -54 -64 -161 -90 -238 l-48 -140 -53 -7 c-29
-3 -82 -9 -118 -13 -63 -6 -119 -12 -190 -20 -19 -2 -64 -7 -100 -10 -79 -7
-123 -14 -129 -21 -6 -5 -6 -9 -15 -90 -4 -32 -9 -72 -11 -89 -2 -16 -9 -73
-15 -125 -6 -52 -13 -107 -16 -122 -2 -15 -6 -49 -9 -75 -4 -49 -14 -129 -20
-173 -2 -14 -6 -47 -10 -75 l-6 -50 281 -109 c199 -78 280 -114 281 -125 3
-63 19 -232 23 -257 2 -11 7 -41 10 -69 4 -27 12 -76 18 -108 6 -32 9 -59 7
-61 -2 -2 -113 -76 -247 -165 -133 -88 -242 -165 -242 -170 0 -5 36 -105 81
-223 44 -117 103 -274 130 -348 75 -200 61 -183 145 -176 39 4 79 8 90 10 24
4 114 15 184 21 30 3 64 7 75 9 11 2 56 7 100 10 l80 7 24 -43 c35 -63 135
-212 203 -301 l59 -78 -74 -137 c-42 -75 -86 -157 -100 -182 -13 -25 -43 -80
-67 -124 l-43 -79 39 -36 c22 -21 95 -86 164 -147 69 -60 134 -118 146 -129
51 -49 254 -225 258 -225 3 0 33 19 68 43 404 276 429 291 451 278 59 -37 272
-152 345 -186 45 -21 83 -43 83 -49 1 -6 1 -141 0 -301 l-3 -290 124 -29 c68
-16 128 -31 133 -32 6 -1 87 -21 180 -44 94 -23 177 -43 185 -45 8 -2 48 -12
88 -23 51 -13 75 -15 81 -8 5 6 31 54 59 106 28 52 69 129 92 170 22 41 61
114 86 162 27 51 50 85 57 82 19 -7 312 -10 411 -4 l88 5 134 -266 c121 -242
135 -266 156 -263 29 4 11 -1 366 88 166 42 313 78 325 80 12 2 34 7 50 11
l27 7 0 122 c1 221 6 475 11 479 2 2 60 31 129 65 69 33 169 86 223 117 93 54
99 56 122 41 12 -8 120 -85 239 -171 119 -85 219 -155 223 -155 3 0 22 15 42
33 20 17 70 61 110 97 41 36 92 82 115 102 22 20 107 95 188 165 81 70 147
132 147 137 1 10 -92 195 -206 413 l-64 123 49 62 c64 82 158 216 206 296 l38
64 57 -7 c31 -3 81 -10 111 -15 30 -5 79 -12 109 -15 30 -4 63 -9 75 -11 12
-2 41 -6 66 -9 25 -3 72 -10 105 -15 48 -8 62 -7 71 4 5 8 72 179 149 381 102
269 135 369 126 374 -7 4 -117 82 -246 172 l-234 164 6 35 c3 19 7 44 9 55 17
88 32 215 40 335 3 47 7 85 7 86 1 1 126 46 277 100 l275 100 0 49 c0 28 -2
70 -6 95 -4 25 -10 70 -13 100 -12 104 -26 225 -32 265 -8 66 -15 118 -19 155
-12 109 -18 140 -23 144 -4 2 -34 7 -67 10 -33 4 -71 9 -85 11 -14 2 -50 7
-80 10 -30 4 -62 8 -70 10 -8 1 -42 6 -75 10 -33 4 -71 9 -85 11 -14 2 -47 6
-74 9 -27 3 -50 6 -51 8 -1 1 -17 47 -35 102 -26 77 -106 281 -145 370 -3 6
16 33 43 61 26 28 88 96 137 150 50 54 115 124 145 157 30 33 58 65 63 73 5 9
-68 123 -219 341 -124 180 -228 330 -230 332 -3 3 -228 -78 -459 -165 -49 -19
-95 -34 -101 -34 -5 0 -35 24 -65 53 -73 70 -202 184 -270 238 l-56 45 73 274
c40 151 73 283 74 292 0 11 -35 34 -112 74 -62 31 -117 60 -123 64 -5 4 -77
42 -160 85 -82 43 -188 98 -234 122 -80 43 -84 44 -100 26 -53 -59 -199 -221
-216 -239 -41 -44 -111 -121 -138 -154 l-29 -34 -61 18 c-145 40 -329 85 -379
91 -60 8 -65 10 -72 45 -2 14 -16 72 -30 130 -25 107 -86 373 -90 400 -3 13
-57 15 -410 18 -320 2 -407 0 -411 -10z m742 -67 c9 -1 23 -43 37 -116 16 -79
97 -419 102 -424 3 -3 11 -6 17 -6 7 0 12 -5 12 -12 0 -17 6 -20 49 -27 21 -4
48 -8 60 -11 12 -3 33 -7 47 -9 40 -6 289 -73 338 -91 41 -14 46 -14 54 0 6
12 12 13 22 5 10 -8 17 -6 27 9 8 11 37 44 64 74 27 29 87 96 134 147 47 52
103 114 126 139 l41 44 119 -63 c65 -35 180 -95 254 -135 74 -39 156 -82 183
-95 26 -14 47 -29 47 -35 0 -5 -32 -127 -70 -270 -59 -221 -67 -262 -55 -271
10 -7 11 -14 4 -21 -7 -7 12 -27 61 -66 86 -67 199 -168 285 -255 42 -42 69
-62 79 -59 9 4 18 2 20 -2 6 -9 28 -2 325 108 106 39 199 71 206 71 7 0 36
-35 66 -77 29 -43 113 -165 186 -271 74 -105 136 -198 138 -205 3 -6 -19 -37
-48 -67 -28 -31 -95 -102 -147 -160 -52 -57 -116 -127 -142 -155 -27 -27 -48
-54 -48 -59 0 -5 15 -42 34 -81 42 -88 128 -316 152 -403 12 -44 21 -61 30
-58 7 3 18 -2 23 -11 5 -9 15 -17 23 -19 8 -1 41 -5 74 -8 32 -4 70 -9 84 -11
25 -4 68 -10 150 -20 25 -3 56 -8 70 -10 14 -2 52 -7 85 -11 33 -3 63 -9 67
-12 3 -4 16 -86 27 -182 12 -96 24 -193 27 -215 5 -45 10 -88 19 -160 3 -27 8
-66 11 -86 l5 -36 -113 -42 c-62 -22 -179 -64 -260 -93 -81 -29 -147 -57 -148
-63 -1 -5 -9 -13 -19 -17 -15 -5 -18 -19 -20 -75 -1 -38 -4 -82 -5 -98 -2 -17
-7 -59 -11 -95 -4 -36 -9 -72 -10 -81 -2 -9 -6 -40 -10 -70 -4 -30 -13 -79
-20 -110 l-13 -57 243 -171 243 -171 -100 -263 c-55 -144 -109 -288 -121 -319
-24 -65 -22 -64 -127 -47 -78 12 -100 15 -165 24 -27 3 -61 8 -75 10 -14 2
-63 9 -110 15 -46 6 -88 14 -92 16 -5 3 -11 -2 -14 -11 -4 -9 -12 -14 -20 -11
-8 3 -34 -29 -70 -87 -60 -97 -168 -252 -228 -327 -22 -28 -32 -48 -26 -54 6
-6 6 -14 0 -21 -7 -8 10 -52 55 -138 36 -70 94 -183 129 -251 l63 -124 -176
-155 c-97 -86 -194 -172 -216 -192 -22 -20 -59 -52 -82 -72 l-43 -35 -225 161
c-124 89 -230 159 -235 156 -6 -4 -16 -2 -23 3 -8 7 -38 -6 -102 -45 -49 -30
-164 -91 -255 -135 -91 -45 -167 -82 -168 -84 -2 -1 -5 -134 -7 -294 -1 -160
-4 -292 -6 -294 -2 -2 -143 -38 -314 -80 -170 -41 -319 -78 -330 -81 -18 -5
-35 25 -145 244 -92 184 -130 251 -142 251 -10 0 -18 6 -18 13 0 9 -11 12 -32
10 -66 -7 -395 -9 -461 -3 -46 4 -71 2 -75 -6 -4 -6 -13 -13 -21 -15 -12 -5
-61 -89 -193 -339 -34 -63 -67 -124 -74 -135 -13 -20 -18 -20 -336 60 -178 44
-328 84 -334 87 -6 4 -10 24 -8 45 1 21 4 150 5 287 3 211 1 250 -11 257 -8 5
-80 40 -160 78 -80 39 -190 97 -245 130 -55 33 -102 55 -106 50 -3 -5 -12 -7
-20 -4 -9 3 -105 -55 -238 -145 -123 -83 -228 -153 -235 -156 -6 -2 -27 11
-47 29 -20 17 -62 55 -95 84 -32 28 -71 62 -85 75 -14 12 -46 41 -71 63 -24
22 -78 69 -118 105 -40 36 -79 69 -86 73 -8 4 -14 13 -14 19 0 5 59 118 131
250 94 172 128 243 120 251 -7 7 -7 14 0 23 8 10 -3 30 -44 81 -73 93 -137
184 -205 295 -42 69 -62 93 -74 90 -10 -2 -18 2 -18 8 0 9 -21 10 -76 5 -42
-4 -84 -8 -93 -10 -9 -1 -47 -6 -86 -10 -38 -3 -83 -8 -100 -10 -16 -2 -51 -7
-77 -10 -27 -3 -68 -8 -92 -11 -44 -5 -45 -5 -55 28 -5 18 -59 163 -120 322
-61 160 -110 291 -108 292 1 0 111 74 245 163 187 124 242 166 238 179 -6 22
-15 69 -21 107 -29 196 -32 225 -41 350 -6 105 -10 119 -25 110 -5 -4 -9 1 -9
10 0 18 15 11 -265 120 -121 47 -229 90 -241 94 -20 9 -20 11 -8 102 7 52 16
121 19 154 3 33 7 71 10 85 3 14 7 54 10 90 4 36 8 72 10 80 2 8 7 42 10 75 7
75 10 93 16 99 7 7 52 14 142 21 43 3 86 8 95 10 9 1 55 6 101 10 46 4 109 11
140 15 31 4 60 5 64 3 5 -3 11 4 14 15 3 11 11 18 17 16 9 -3 24 29 45 98 37
116 117 322 155 397 l25 49 -22 23 c-13 13 -50 55 -82 94 -33 38 -64 75 -70
81 -5 6 -37 42 -70 80 -33 37 -79 90 -103 117 -24 28 -39 53 -35 60 8 15 152
224 349 507 17 25 38 44 45 43 8 -2 126 -48 264 -103 137 -54 252 -96 255 -92
3 4 13 7 22 7 9 0 61 43 115 95 105 101 140 132 244 217 54 43 66 58 61 75 -3
14 -1 19 6 14 7 -4 12 -3 12 3 0 5 -27 123 -59 263 -33 139 -61 261 -63 271
-2 14 22 31 107 76 61 31 173 90 250 131 77 40 164 86 193 102 30 16 55 28 56
26 1 -2 84 -98 184 -215 106 -124 184 -208 188 -201 5 7 11 6 19 -6 11 -15 16
-15 56 0 65 23 333 90 418 104 57 10 75 16 78 31 3 10 9 17 13 14 5 -3 12 -1
15 5 5 7 145 535 145 545 0 0 663 -4 677 -4z"/>
<path d="M4169 6788 c-2 -125 -21 -492 -25 -499 -6 -10 18 -25 41 -27 11 -1
29 -3 40 -4 17 -3 28 17 72 127 29 72 52 128 53 125 1 -3 3 -66 6 -140 3 -74
7 -137 9 -139 3 -2 26 -6 53 -9 l48 -4 27 98 c15 55 36 128 47 164 59 201 70
239 70 253 0 9 -15 17 -41 21 -23 4 -44 5 -46 2 -2 -2 -7 -19 -10 -38 -3 -18
-9 -41 -14 -50 -5 -10 -7 -18 -5 -18 3 0 1 -12 -5 -26 -5 -15 -12 -41 -15 -58
-2 -17 -15 -67 -29 -111 l-24 -80 -2 100 c-2 129 -4 153 -9 158 -3 2 -23 7
-46 10 -40 7 -41 6 -52 -31 -6 -20 -25 -71 -42 -112 l-30 -75 5 85 c9 149 16
244 20 267 4 23 -4 28 -62 38 -32 5 -33 4 -34 -27z"/>
<path d="M2910 6673 c-27 -9 -175 -65 -178 -68 -2 -2 4 -19 12 -39 l15 -36 50
19 49 18 15 -41 c9 -22 32 -88 52 -146 87 -247 116 -269 283 -208 28 11 52 23
52 27 0 10 -21 71 -25 71 -1 0 -22 -7 -45 -15 -59 -21 -87 -19 -104 8 -8 12
-44 108 -81 212 -36 105 -69 193 -73 196 -4 4 -14 4 -22 2z"/>
<path d="M3410 6652 c-38 -5 -101 -53 -121 -92 -24 -47 -29 -102 -15 -164 16
-65 31 -94 69 -129 38 -33 81 -46 138 -40 56 6 94 28 133 76 29 36 31 44 31
120 0 65 -5 91 -23 124 -46 88 -109 119 -212 105z m83 -102 c61 -48 68 -189
12 -226 -20 -13 -30 -14 -59 -4 -38 12 -59 48 -71 117 -16 102 51 166 118 113z"/>
<path d="M4718 6538 c-113 -29 -189 -225 -130 -335 16 -30 54 -59 97 -75 36
-13 53 -15 121 -10 32 3 99 67 124 119 25 54 33 140 18 187 -28 84 -136 137
-230 114z m128 -133 c10 -39 -5 -110 -29 -147 -63 -93 -160 -55 -143 55 16
100 80 161 138 131 15 -8 31 -26 34 -39z"/>
<path d="M2410 6442 c-36 -20 -77 -43 -92 -51 l-27 -14 19 -38 20 -38 46 26
c56 32 45 42 141 -135 78 -144 134 -212 178 -217 21 -3 55 8 112 37 l82 41
-20 39 c-18 36 -21 37 -42 24 -12 -8 -39 -22 -60 -31 l-38 -16 -35 38 c-19 20
-34 40 -34 45 0 4 -13 29 -29 56 -15 26 -41 70 -56 98 -79 143 -97 174 -98
174 -1 0 -31 -17 -67 -38z"/>
<path d="M5140 6371 c0 -5 -40 -81 -90 -169 -49 -89 -90 -165 -90 -169 0 -15
81 -56 90 -47 4 5 22 36 40 69 65 119 80 140 109 158 46 27 108 8 157 -50 l21
-25 22 42 c20 38 20 44 7 65 -30 46 -143 73 -175 43 -11 -11 -11 -9 -2 9 17
33 14 37 -28 61 -41 23 -61 28 -61 13z"/>
<path d="M5576 6269 l-27 -31 41 -31 c22 -17 40 -34 40 -37 0 -3 -50 -68 -111
-145 -62 -77 -118 -155 -126 -174 -28 -65 0 -116 110 -201 27 -22 29 -22 43
-4 35 46 35 49 -12 88 -25 21 -44 46 -44 57 0 17 24 65 40 79 4 3 53 64 110
135 58 72 110 136 117 143 7 7 13 15 13 17 0 2 -110 92 -156 127 -8 5 -21 -3
-38 -23z"/>
<path d="M2195 6107 c-118 -46 -169 -165 -115 -270 65 -126 170 -175 276 -128
56 25 154 123 154 154 -1 25 -49 88 -56 72 -36 -86 -114 -156 -165 -150 -31 4
-59 21 -59 35 0 5 45 44 100 87 54 43 99 83 100 88 0 14 -60 80 -92 100 -34
21 -104 27 -143 12z m75 -94 c14 -9 27 -18 29 -19 4 -4 -45 -47 -92 -80 -41
-29 -45 -29 -52 7 -8 37 15 80 49 95 39 17 37 17 66 -3z"/>
<path d="M1782 5915 c-18 -19 -32 -38 -32 -43 0 -8 101 -100 126 -115 22 -13
16 -29 -27 -79 l-41 -47 -30 27 c-17 15 -51 46 -77 69 l-46 42 -36 -41 -37
-41 47 -41 c26 -22 78 -68 115 -101 38 -33 74 -64 80 -70 43 -39 153 -133 163
-138 6 -4 24 9 42 32 36 45 41 35 -59 121 -35 30 -69 61 -76 68 -10 10 -4 22
33 62 l46 51 31 -29 c17 -16 49 -44 70 -63 22 -19 48 -42 59 -53 19 -18 20
-17 51 20 17 21 31 41 31 45 0 4 -65 65 -145 134 -80 70 -161 142 -180 159
-84 74 -73 70 -108 31z"/>
<path d="M5825 5806 c-76 -28 -156 -97 -189 -164 -45 -89 7 -191 98 -192 l39
0 -21 -19 -22 -18 31 -37 c18 -20 36 -36 41 -36 5 0 69 52 141 116 73 64 148
130 167 147 19 17 54 47 76 68 l42 37 -30 36 c-16 20 -35 36 -41 36 -11 0 -31
-17 -123 -102 l-31 -29 0 40 c0 92 -88 150 -178 117z m100 -116 c39 -32 3
-117 -69 -164 -67 -43 -126 -29 -128 31 -1 40 33 88 89 123 45 29 81 32 108
10z"/>
<path d="M1548 5217 c-117 -187 -262 -583 -302 -827 -3 -19 -8 -44 -10 -55 -2
-12 -7 -48 -11 -80 -4 -33 -9 -69 -11 -80 -2 -11 -7 -87 -10 -170 -6 -138 -8
-151 -28 -165 -69 -48 -117 -122 -156 -238 -73 -221 -24 -454 116 -552 15 -10
32 -49 54 -119 68 -221 204 -526 312 -702 20 -34 28 -59 28 -95 1 -169 100
-318 241 -363 124 -40 277 -22 358 41 24 18 25 18 50 -4 14 -13 28 -25 31 -28
19 -21 190 -147 264 -195 85 -56 257 -147 361 -193 162 -70 502 -159 678 -176
31 -3 81 -8 110 -11 28 -3 102 -7 163 -10 l111 -4 -1 41 c-1 48 14 43 -181 52
-150 7 -179 10 -360 41 -379 65 -793 262 -1092 522 l-62 54 20 47 c26 61 31
150 12 215 -39 137 -179 294 -284 320 -63 16 -314 622 -313 757 0 25 9 72 18
105 37 124 18 290 -45 381 -55 80 -179 138 -306 143 -21 1 -22 4 -18 109 4
105 14 228 21 267 2 10 6 37 9 60 15 105 61 284 110 425 61 180 82 229 152
364 29 55 50 103 47 108 -3 4 -18 15 -34 23 -26 14 -29 13 -42 -8z m-144
-1451 c74 -22 131 -66 158 -123 33 -70 33 -231 0 -323 -23 -62 -23 -67 -9
-122 l15 -58 -41 -11 c-71 -19 -137 -58 -198 -118 l-60 -57 -21 73 c-12 40
-27 73 -33 73 -7 0 -29 16 -49 35 -115 108 -128 339 -29 528 49 93 95 127 164
122 27 -2 74 -11 103 -19z m206 -762 c0 -6 -34 -28 -76 -49 -53 -26 -96 -57
-140 -101 -35 -35 -65 -64 -68 -64 -2 0 -7 14 -11 30 -15 69 106 188 230 225
37 12 41 11 52 -9 7 -11 12 -26 13 -32z m44 -134 c9 -22 16 -42 16 -44 0 -1
-33 -19 -72 -39 -69 -34 -143 -95 -176 -144 -19 -31 -28 -29 -41 9 -10 28 -8
37 15 72 38 59 114 128 176 159 29 14 56 26 59 27 4 0 14 -18 23 -40z m74
-174 l21 -45 -35 -11 c-61 -20 -127 -63 -176 -113 -27 -26 -48 -52 -48 -57 0
-21 -20 -9 -35 21 -16 29 -15 31 20 80 20 28 52 65 72 82 36 33 129 87 149 87
5 0 20 -20 32 -44z m98 -197 c30 -57 45 -74 73 -86 79 -33 104 -49 137 -83 74
-75 136 -208 127 -275 -5 -41 -32 -114 -54 -145 -9 -14 -39 -37 -66 -50 -64
-33 -194 -35 -263 -4 -101 46 -159 143 -165 277 -4 72 -8 84 -50 153 -43 72
-45 76 -30 104 37 72 179 180 236 180 12 0 31 -24 55 -71z"/>
<path d="M6419 5043 c-34 -21 -59 -63 -59 -100 0 -15 14 -97 30 -182 17 -85
28 -156 25 -159 -9 -10 -180 -41 -186 -34 -3 4 -23 77 -43 162 -46 192 -52
208 -90 231 -39 24 -67 24 -115 0 -90 -46 -131 -135 -136 -296 -5 -183 27
-277 129 -379 60 -61 154 -117 215 -131 23 -5 32 -13 37 -33 3 -15 7 -37 10
-50 18 -87 24 -387 11 -517 -13 -130 -18 -160 -44 -275 -147 -665 -581 -1226
-1183 -1530 l-59 -30 -58 26 c-198 91 -407 38 -524 -132 -43 -62 -61 -118 -65
-202 -11 -236 177 -425 417 -418 177 6 324 111 388 276 20 54 29 64 73 88 325
175 572 369 814 640 318 356 571 907 629 1371 4 30 8 61 10 70 16 82 23 448
10 551 -3 25 -10 84 -16 132 l-11 86 39 39 c135 135 137 391 6 661 -20 41 -47
87 -60 103 -40 47 -142 64 -194 32z m135 -96 c29 -34 82 -154 110 -248 32
-107 30 -237 -3 -313 -21 -48 -90 -126 -112 -126 -8 0 -9 -16 -5 -52 4 -29 10
-71 12 -93 3 -22 7 -51 10 -65 13 -58 12 -468 -1 -575 -60 -486 -225 -900
-509 -1278 -95 -126 -110 -144 -205 -242 -204 -210 -411 -368 -636 -486 -55
-28 -110 -61 -122 -72 -12 -11 -35 -52 -50 -91 -91 -234 -378 -306 -550 -138
-161 157 -118 404 89 514 64 34 190 32 272 -6 32 -14 65 -34 71 -43 12 -16 23
-12 129 41 505 254 903 686 1115 1211 123 303 172 574 166 920 -2 110 -6 211
-8 225 -3 14 -11 58 -17 99 -6 41 -13 77 -15 81 -3 4 -22 10 -43 13 -54 9
-151 60 -206 108 -85 75 -118 157 -118 299 -1 117 17 194 50 226 32 29 71 42
81 25 4 -6 29 -102 55 -213 27 -112 49 -204 50 -205 2 -3 337 67 347 73 3 2
-2 47 -13 101 -10 54 -20 112 -23 128 -3 17 -9 50 -14 75 -20 96 -21 109 -5
125 21 20 73 11 98 -18z"/>
<path d="M4665 1611 c-77 -19 -146 -83 -165 -151 -44 -157 59 -294 220 -294
104 0 168 43 211 138 47 107 -8 247 -115 291 -43 18 -113 25 -151 16z m139
-106 c68 -45 80 -148 23 -208 -40 -43 -93 -59 -144 -45 -115 31 -148 173 -58
245 56 45 118 47 179 8z"/>
<path d="M2910 5033 c-173 -3 -180 -5 -225 -44 -30 -27 -35 -37 -35 -74 0 -53
34 -98 87 -116 26 -8 134 -12 347 -13 l310 -1 4 -95 c8 -158 7 -759 0 -850
-10 -114 -21 -149 -63 -198 -72 -83 -209 -121 -300 -82 -54 23 -97 67 -140
145 -46 81 -77 112 -127 126 -63 16 -108 6 -145 -36 -55 -59 -40 -116 69 -262
109 -146 152 -180 270 -213 310 -86 653 116 703 412 4 24 7 274 7 556 l-1 512
110 0 c127 0 169 13 199 62 36 59 18 125 -43 161 -21 11 -586 17 -1027 10z"/>
<path d="M4125 4330 c-101 -3 -178 -10 -190 -17 -94 -54 -89 -158 10 -207 35
-18 63 -19 354 -19 l316 0 4 -121 c12 -357 5 -832 -14 -931 -26 -131 -216
-228 -346 -177 -53 20 -108 77 -147 150 -41 77 -72 107 -127 122 -58 16 -105
7 -139 -29 -38 -40 -43 -87 -16 -142 30 -59 134 -202 178 -245 172 -167 530
-144 732 48 57 54 99 119 126 198 l26 73 -1 533 0 534 110 0 c154 0 205 26
216 109 6 46 -11 80 -54 108 -25 17 -63 18 -448 18 -231 0 -496 -2 -590 -5z"/>
<path d="M3985 3681 c-134 -61 -138 -225 -6 -290 46 -23 129 -27 172 -8 32 14
99 72 99 86 0 3 4 23 9 43 15 64 -33 142 -108 174 -46 19 -118 17 -166 -5z"/>
</g>
</svg>
